<svg width="94" height="94" viewBox="0 0 94 94" fill="none" xmlns="http://www.w3.org/2000/svg">
<path d="M39 73.5C39 84.2696 30.2696 93 19.5 93C8.73045 93 0 84.2696 0 73.5C0 62.7304 8.73045 54 19.5 54C30.2696 54 39 62.7304 39 73.5Z" fill="black"/>
<path d="M0 0V18.2727H28.2727L19.1334 48.0026C19.2554 48.0009 19.3776 48 19.5 48C27.1312 48 33.9794 51.3521 38.6526 56.6642L50.4545 18.2727H78.6818V0H0Z" fill="black"/>
<path d="M36.4454 63.8441C33.0873 57.9637 26.7565 54 19.5 54C18.7391 54 17.9884 54.0436 17.2503 54.1284L6.75747 88.2611C10.1751 91.214 14.629 93 19.5 93C22.5846 93 25.5019 92.2838 28.0947 91.0086L36.4454 63.8441Z" fill="black"/>
</svg>
