<svg width="422" height="94" viewBox="0 0 422 94" fill="none" xmlns="http://www.w3.org/2000/svg">
<path d="M346.045 93.0909V0H384.5C391.47 0 397.485 1.25758 402.545 3.77273C407.636 6.25758 411.561 9.83333 414.318 14.5C417.076 19.1364 418.454 24.6364 418.454 31C418.454 37.4545 417.045 42.9394 414.227 47.4545C411.409 51.9394 407.409 55.3636 402.227 57.7273C397.045 60.0606 390.909 61.2273 383.818 61.2273H359.5V43.5H379.636C383.03 43.5 385.864 43.0606 388.136 42.1818C390.439 41.2727 392.182 39.9091 393.364 38.0909C394.545 36.2424 395.136 33.8788 395.136 31C395.136 28.1212 394.545 25.7424 393.364 23.8636C392.182 21.9545 390.439 20.5303 388.136 19.5909C385.833 18.6212 383 18.1364 379.636 18.1364H368.545V93.0909H346.045ZM398.455 50.5455L421.636 93.0909H397.091L374.364 50.5455H398.455Z" fill="black"/>
<path d="M262.545 93.0909V0H301C307.97 0 313.985 1.36364 319.045 4.09091C324.136 6.78788 328.061 10.5606 330.818 15.4091C333.576 20.2273 334.955 25.8333 334.955 32.2273C334.955 38.6515 333.545 44.2727 330.727 49.0909C327.939 53.8788 323.955 57.5909 318.773 60.2273C313.591 62.8636 307.439 64.1818 300.318 64.1818H276.591V46.4545H296.136C299.53 46.4545 302.364 45.8636 304.636 44.6818C306.939 43.5 308.682 41.8485 309.864 39.7273C311.045 37.5758 311.636 35.0758 311.636 32.2273C311.636 29.3485 311.045 26.8636 309.864 24.7727C308.682 22.6515 306.939 21.0152 304.636 19.8636C302.333 18.7121 299.5 18.1364 296.136 18.1364H285.045V93.0909H262.545Z" fill="black"/>
<path d="M248.42 0V93.0909H225.92V0H248.42Z" fill="black"/>
<path d="M111.989 93.0909L84.8977 0H109.761L123.807 61H124.58L140.625 0H160.898L176.943 61.1364H177.716L191.807 0H216.625L189.58 93.0909H167.898L151.125 36.6364H150.398L133.625 93.0909H111.989Z" fill="black"/>
<path d="M39 73.5C39 84.2696 30.2696 93 19.5 93C8.73045 93 0 84.2696 0 73.5C0 62.7304 8.73045 54 19.5 54C30.2696 54 39 62.7304 39 73.5Z" fill="black"/>
<path d="M0 0V18.2727H28.2727L19.1334 48.0026C19.2554 48.0009 19.3776 48 19.5 48C27.1312 48 33.9794 51.3521 38.6526 56.6642L50.4545 18.2727H78.6818V0H0Z" fill="black"/>
<path d="M36.4454 63.8441C33.0873 57.9637 26.7565 54 19.5 54C18.7391 54 17.9884 54.0436 17.2503 54.1284L6.75747 88.2611C10.1751 91.214 14.629 93 19.5 93C22.5846 93 25.5019 92.2838 28.0947 91.0086L36.4454 63.8441Z" fill="black"/>
</svg>
