<!DOCTYPE svg PUBLIC "-//W3C//DTD SVG 1.1//EN" "http://www.w3.org/Graphics/SVG/1.1/DTD/svg11.dtd">
<!-- Uploaded to: SVG Repo, www.svgrepo.com, Transformed by: SVG Repo Mixer Tools -->
<svg width="800px" height="800px" viewBox="0 0 24 24" xmlns="http://www.w3.org/2000/svg" id="maximize" class="icon glyph" fill="#ffffff" stroke="#ffffff">
<g id="SVGRepo_bgCarrier" stroke-width="0"/>
<g id="SVGRepo_tracerCarrier" stroke-linecap="round" stroke-linejoin="round"/>
<g id="SVGRepo_iconCarrier">
<path d="M10.71,14.71,5.41,20H10a1,1,0,0,1,0,2H4a2,2,0,0,1-1.38-.56l0,0s0,0,0,0A2,2,0,0,1,2,20V14a1,1,0,0,1,2,0v4.59l5.29-5.3a1,1,0,0,1,1.42,1.42ZM21.44,2.62s0,0,0,0l0,0A2,2,0,0,0,20,2H14a1,1,0,0,0,0,2h4.59l-5.3,5.29a1,1,0,0,0,0,1.42,1,1,0,0,0,1.42,0L20,5.41V10a1,1,0,0,0,2,0V4A2,2,0,0,0,21.44,2.62Z" style="fill:#ffffff"/>
</g>
</svg>